<mxfile host="app.diagrams.net" modified="2020-09-08T09:43:22.400Z" agent="5.0 (X11)" etag="hrwrhnRKOJBzeZybvMtC" version="13.6.9" type="github">
  <diagram id="6a731a19-8d31-9384-78a2-239565b7b9f0" name="Page-1">
    <mxGraphModel dx="1151" dy="760" grid="1" gridSize="10" guides="1" tooltips="1" connect="1" arrows="1" fold="1" page="1" pageScale="1" pageWidth="827" pageHeight="1169" background="#ffffff" math="0" shadow="0">
      <root>
        <mxCell id="0" />
        <mxCell id="1" parent="0" />
        <mxCell id="6kjEEUr2q9qMmpUZZau6-2257" value="" style="ellipse;shape=cloud;whiteSpace=wrap;html=1;" vertex="1" parent="1">
          <mxGeometry x="340" y="10" width="120" height="80" as="geometry" />
        </mxCell>
        <mxCell id="6kjEEUr2q9qMmpUZZau6-2258" value="ISP" style="text;html=1;strokeColor=none;fillColor=none;align=center;verticalAlign=middle;whiteSpace=wrap;rounded=0;" vertex="1" parent="1">
          <mxGeometry x="380" y="30" width="40" height="20" as="geometry" />
        </mxCell>
        <mxCell id="6kjEEUr2q9qMmpUZZau6-2261" value="" style="shape=mxgraph.cisco.routers.10700;html=1;pointerEvents=1;dashed=0;fillColor=#036897;strokeColor=#ffffff;strokeWidth=2;verticalLabelPosition=bottom;verticalAlign=top;align=center;outlineConnect=0;" vertex="1" parent="1">
          <mxGeometry x="400" y="50" width="60" height="40" as="geometry" />
        </mxCell>
        <mxCell id="6kjEEUr2q9qMmpUZZau6-2262" value="35.52.18.1 /24" style="text;html=1;strokeColor=none;fillColor=none;align=center;verticalAlign=middle;whiteSpace=wrap;rounded=0;" vertex="1" parent="1">
          <mxGeometry x="450" y="90" width="80" height="20" as="geometry" />
        </mxCell>
        <mxCell id="6kjEEUr2q9qMmpUZZau6-2263" value="Lan" style="ellipse;shape=cloud;whiteSpace=wrap;html=1;" vertex="1" parent="1">
          <mxGeometry x="354" y="200" width="120" height="80" as="geometry" />
        </mxCell>
        <mxCell id="6kjEEUr2q9qMmpUZZau6-2264" value="" style="shape=mxgraph.cisco.people.standing_man;html=1;pointerEvents=1;dashed=0;fillColor=#036897;strokeColor=#ffffff;strokeWidth=2;verticalLabelPosition=bottom;verticalAlign=top;align=center;outlineConnect=0;" vertex="1" parent="1">
          <mxGeometry x="480" y="209" width="22" height="62" as="geometry" />
        </mxCell>
        <mxCell id="6kjEEUr2q9qMmpUZZau6-2265" value="" style="shape=mxgraph.cisco.security.network_security;html=1;pointerEvents=1;dashed=0;fillColor=#036897;strokeColor=#ffffff;strokeWidth=2;verticalLabelPosition=bottom;verticalAlign=top;align=center;outlineConnect=0;" vertex="1" parent="1">
          <mxGeometry x="490" y="226" width="20" height="28" as="geometry" />
        </mxCell>
        <mxCell id="6kjEEUr2q9qMmpUZZau6-2275" value="" style="shape=mxgraph.cisco.routers.10700;html=1;pointerEvents=1;dashed=0;fillColor=#036897;strokeColor=#ffffff;strokeWidth=2;verticalLabelPosition=bottom;verticalAlign=top;align=center;outlineConnect=0;" vertex="1" parent="1">
          <mxGeometry x="420" y="254" width="46" height="30" as="geometry" />
        </mxCell>
        <mxCell id="6kjEEUr2q9qMmpUZZau6-2289" value="" style="endArrow=none;html=1;exitX=0.717;exitY=0.125;exitDx=0;exitDy=0;exitPerimeter=0;" edge="1" parent="1" source="6kjEEUr2q9qMmpUZZau6-2263">
          <mxGeometry width="50" height="50" relative="1" as="geometry">
            <mxPoint x="380" y="125" as="sourcePoint" />
            <mxPoint x="430" y="75" as="targetPoint" />
          </mxGeometry>
        </mxCell>
        <mxCell id="6kjEEUr2q9qMmpUZZau6-2291" value="192.168.1.0 /24" style="text;html=1;strokeColor=none;fillColor=none;align=center;verticalAlign=middle;whiteSpace=wrap;rounded=0;" vertex="1" parent="1">
          <mxGeometry x="340" y="180" width="90" height="20" as="geometry" />
        </mxCell>
      </root>
    </mxGraphModel>
  </diagram>
</mxfile>
